# xmcd
#
# Track frame offsets: 
#        150
#        14145
#        31955
#        51192
#        66117
#        79207
#        101305
#        116665
#        133270
#        149825
#
# Disc length: 2218 seconds
#
# Revision: 6
# Processed by: cddbd v1.5.2PL0 Copyright (c) Steve Scherf et al.
# Submitted via: ExactAudioCopy v1.1
#
DISCID=9408a80a
DTITLE=Motorhead - Bomber
DYEAR=1979
DGENRE=Hard Rock
TTITLE0=Deadmen Tell No Tales
TTITLE1=Lawman
TTITLE2=Sweet Revenge
TTITLE3=Sharpshooter
TTITLE4=Poison
TTITLE5=Stone Dead Forever
TTITLE6=All The Aces
TTITLE7=Step Down
TTITLE8=Talking Head
TTITLE9=Bomber
EXTD=
EXTT0=
EXTT1=
EXTT2=
EXTT3=
EXTT4=
EXTT5=
EXTT6=
EXTT7=
EXTT8=
EXTT9=
PLAYORDER=
